<?xml version="1.0" encoding="iso-8859-1"?>
<!DOCTYPE svg PUBLIC "-//W3C//DTD SVG 1.0//EN" "http://www.w3.org/TR/2001/REC-SVG-20010904/DTD/svg10.dtd">
<!-- Creator: CorelDRAW -->
<svg xmlns="http://www.w3.org/2000/svg" xmlns:odm="http://product.corel.com/CGS/11/cddns/" xml:space="preserve" width="8.5in" height="11in" style="shape-rendering:geometricPrecision; text-rendering:geometricPrecision; image-rendering:optimizeQuality; fill-rule:evenodd"
     viewBox="0 0 8500 11000">
 <defs>
  <style type="text/css">
   <![CDATA[
    .str0 {stroke:#000000;stroke-width:3}
    .fil0 {fill:#000000}
   ]]>
  </style>
 </defs>
 <g id="Layer_1">
  <path class="fil0 str0" d="M7727 8644l-1133 0c-520,598 -1085,1036 -1692,1313 -191,16 -334,24 -425,24 -259,0 -552,-47 -881,-138l-272 138 -326 0c-744,0 -1117,-267 -1117,-798 0,-31 5,-75 15,-138 -546,-44 -821,-305 -821,-780 0,-51 5,-121 15,-212 -202,-57 -355,-148 -458,-275 -104,-124 -156,-285 -156,-477 0,-155 55,-324 166,-500 -272,-293 -409,-619 -409,-979 0,-415 225,-749 676,-1003 451,-251 1047,-378 1791,-378l189 0c-60,-456 -200,-897 -417,-1322l-122 -212c-262,-501 -394,-889 -394,-1161 0,-754 396,-1226 1192,-1413l220 -54 381 1687 1405 1495c96,112 261,327 500,645l212 280c228,309 389,498 482,565 94,70 244,104 451,104l889 0c272,580 409,1179 409,1790 0,596 -124,1198 -370,1799zm-252 -394c159,-461 236,-902 236,-1322 0,-495 -85,-982 -259,-1464 -637,0 -1036,-39 -1197,-114 -163,-75 -407,-342 -731,-798 -129,-176 -326,-428 -583,-749l-1526 -1625 -303 -1407c-508,174 -762,498 -762,975 0,246 85,515 259,803l98 168c397,659 594,1286 594,1884l8 213 -275 0c-803,0 -1410,80 -1814,238 -407,161 -609,402 -609,726 0,293 106,541 316,743 210,203 467,304 770,304l464 5 1376 -620c-208,-313 -487,-471 -837,-471 -91,0 -208,21 -348,59 -142,42 -308,104 -502,184l-358 16 -357 -381 616 -8c179,-75 340,-132 487,-166 146,-36 280,-54 402,-54 648,0 1122,329 1420,987l-259 122c319,156 565,430 738,819l-298 127c234,148 449,399 646,751l-469 221c256,189 464,453 622,798l-933 417c150,31 280,47 386,47l295 -8c674,-389 1221,-863 1641,-1420l1046 0zm-3462 -1101c-176,-236 -388,-389 -637,-454l-1132 508 -402 0c-381,0 -669,-54 -866,-161 -64,91 -98,179 -98,259 0,156 78,272 231,353 155,78 386,116 694,116l806 0 1404 -621zm319 888c-23,-31 -44,-57 -59,-77 -122,-140 -267,-252 -433,-332l-1164 516 -1228 -8 -23 98c0,298 295,449 889,449l570 0 1448 -646zm161 1024c-36,-44 -62,-80 -83,-106 -96,-138 -218,-259 -365,-371l-1086 485 -700 0 0 46c0,340 246,508 739,508l248 0 1247 -562z"/>
 </g>
</svg>
